<?xml version="1.0" standalone="no"?>
<!DOCTYPE svg PUBLIC "-//W3C//DTD SVG 20010904//EN"
 "http://www.w3.org/TR/2001/REC-SVG-20010904/DTD/svg10.dtd">
<svg version="1.0" xmlns="http://www.w3.org/2000/svg"
 width="693.000000pt" height="159.000000pt" viewBox="0 0 693.000000 159.000000"
 preserveAspectRatio="xMidYMid meet">

<g transform="translate(0.000000,159.000000) scale(0.100000,-0.100000)"
fill="#000000" stroke="none">
<path d="M3270 1244 c-129 -86 -236 -158 -238 -159 -2 -2 4 -15 13 -29 l17
-25 224 149 c123 83 228 150 234 150 6 0 48 -25 94 -56 105 -70 120 -69 124 9
l3 57 54 0 55 0 0 -115 0 -114 59 -40 59 -40 17 26 c10 14 13 28 8 32 -5 3
-26 16 -46 29 l-36 23 -3 127 -3 127 -110 0 -110 0 -3 -42 c-2 -24 -5 -43 -8
-43 -2 0 -35 20 -72 45 -37 25 -74 45 -82 45 -8 0 -121 -70 -250 -156z"/>
<path d="M365 1238 c-2 -7 -25 -94 -50 -193 -26 -99 -51 -197 -56 -217 -7 -28
-15 -38 -29 -38 -13 0 -20 -7 -20 -20 0 -18 7 -20 65 -20 58 0 65 2 65 20 0
13 -7 20 -20 20 -24 0 -24 -4 -4 76 l17 65 70 -3 71 -3 12 -40 c26 -92 26 -95
4 -95 -13 0 -20 -7 -20 -20 0 -18 7 -20 65 -20 58 0 65 2 65 19 0 13 -8 21
-22 23 -20 3 -27 24 -78 228 l-56 225 -37 3 c-24 2 -39 -1 -42 -10z m91 -235
l6 -33 -60 0 -60 0 29 108 c16 59 29 112 30 117 1 12 46 -146 55 -192z"/>
<path d="M660 1225 c0 -18 5 -25 20 -25 19 0 20 -7 20 -203 0 -262 -9 -247
150 -247 108 0 120 2 130 19 6 12 10 102 10 225 0 205 0 205 23 208 14 2 22
10 22 23 0 18 -8 20 -67 23 -67 3 -68 3 -68 -23 0 -18 5 -25 20 -25 19 0 20
-7 20 -205 l0 -205 -90 0 -90 0 0 205 c0 198 1 205 20 205 15 0 20 7 20 25 0
24 -2 25 -70 25 -68 0 -70 -1 -70 -25z"/>
<path d="M1160 1243 c-37 -13 -40 -32 -40 -248 0 -262 -11 -245 153 -245 l117
0 0 60 c0 53 -2 60 -20 60 -17 0 -20 -7 -20 -40 l0 -40 -90 0 -90 0 0 205 0
205 90 0 90 0 0 -35 c0 -28 4 -35 20 -35 18 0 20 7 20 60 l0 60 -107 -1 c-60
0 -115 -3 -123 -6z"/>
<path d="M1450 1185 c0 -58 2 -65 20 -65 17 0 20 7 20 40 l0 40 45 0 45 0 0
-205 c0 -198 -1 -205 -20 -205 -13 0 -20 -7 -20 -20 0 -18 7 -20 70 -20 63 0
70 2 70 20 0 15 -7 20 -25 20 l-25 0 0 205 0 205 45 0 45 0 0 -41 c0 -36 2
-40 23 -37 20 3 22 8 22 63 l0 60 -157 3 -158 3 0 -66z"/>
<path d="M1840 1225 c0 -18 5 -25 20 -25 19 0 20 -7 20 -205 0 -198 -1 -205
-20 -205 -13 0 -20 -7 -20 -20 0 -18 7 -20 70 -20 63 0 70 2 70 20 0 15 -7 20
-25 20 l-25 0 0 204 c0 205 0 205 23 208 14 2 22 10 22 23 0 18 -8 20 -67 23
-67 3 -68 3 -68 -23z"/>
<path d="M2110 1237 c-13 -7 -27 -23 -31 -37 -4 -14 -7 -105 -8 -202 -1 -172
6 -224 32 -240 7 -4 57 -8 113 -8 141 0 134 -14 134 246 0 115 -4 214 -8 220
-16 24 -54 34 -129 34 -43 0 -89 -6 -103 -13z m190 -242 l0 -205 -90 0 -90 0
0 205 0 205 90 0 90 0 0 -205z"/>
<path d="M2440 1225 c0 -18 5 -25 20 -25 19 0 20 -7 20 -205 0 -198 -1 -205
-20 -205 -13 0 -20 -7 -20 -20 0 -18 7 -20 70 -20 63 0 70 2 70 20 0 13 -7 20
-20 20 -19 0 -20 6 -19 168 l1 167 91 -187 c91 -187 92 -188 125 -188 l32 0 0
225 c0 218 1 225 20 225 15 0 20 7 20 25 0 26 -1 26 -67 23 -60 -3 -68 -5 -68
-23 0 -13 8 -21 23 -23 22 -3 22 -4 21 -180 l-1 -177 -99 203 -98 202 -51 0
c-47 0 -50 -2 -50 -25z"/>
<path d="M4240 1243 c-37 -13 -40 -32 -40 -249 0 -180 2 -215 16 -228 12 -13
40 -16 140 -16 l124 0 0 135 c0 74 -3 135 -7 135 -4 0 -37 -19 -75 -41 -45
-28 -68 -48 -68 -60 0 -24 7 -24 48 1 18 11 37 20 42 20 6 0 10 -33 10 -75 l0
-75 -90 0 -90 0 0 205 0 205 90 0 90 0 0 -35 c0 -31 3 -35 25 -35 25 0 26 2
23 58 l-3 57 -110 2 c-60 1 -117 -1 -125 -4z"/>
<path d="M4697 1243 c-3 -4 -26 -91 -52 -193 -25 -102 -51 -202 -56 -222 -7
-28 -15 -38 -29 -38 -13 0 -20 -7 -20 -20 0 -18 7 -20 65 -20 58 0 65 2 65 20
0 13 -7 20 -20 20 -24 0 -24 -4 -4 76 l17 65 70 -3 71 -3 12 -40 c26 -92 26
-95 4 -95 -13 0 -20 -7 -20 -20 0 -18 7 -20 65 -20 58 0 65 2 65 19 0 13 -8
21 -22 23 -20 3 -27 24 -78 228 l-56 225 -36 3 c-20 2 -38 -1 -41 -5z m93
-260 c0 -9 -18 -13 -59 -13 l-59 0 29 111 c16 62 29 114 30 118 1 9 58 -202
59 -216z"/>
<path d="M4994 1235 c-8 -20 4 -35 27 -35 18 0 19 -9 19 -205 l0 -205 -25 0
c-18 0 -25 -5 -25 -20 0 -18 7 -20 70 -20 63 0 70 2 70 20 0 13 -7 20 -20 20
-18 0 -20 7 -20 73 l0 72 36 20 c23 12 38 15 42 9 37 -57 102 -163 102 -168 0
-3 -7 -6 -15 -6 -8 0 -15 -9 -15 -20 0 -18 7 -20 65 -20 58 0 65 2 65 20 0 13
-7 20 -18 20 -13 0 -39 32 -80 99 -34 54 -62 104 -62 110 0 6 12 17 28 25 53
27 67 52 67 123 0 96 -11 103 -176 103 -104 0 -131 -3 -135 -15z m264 -92 l-3
-56 -75 -48 c-41 -26 -78 -48 -82 -48 -5 -1 -8 46 -8 104 l0 105 85 0 86 0 -3
-57z"/>
<path d="M5554 1223 c-88 -353 -111 -428 -132 -431 -14 -2 -22 -11 -22 -23 0
-17 7 -19 65 -19 58 0 65 2 65 20 0 13 -7 20 -20 20 -22 0 -22 3 4 95 l12 40
71 3 70 3 17 -65 c19 -79 19 -76 1 -76 -8 0 -15 -9 -15 -20 0 -18 7 -20 60
-20 53 0 60 2 60 20 0 13 -7 20 -20 20 -13 0 -22 9 -27 28 -3 15 -29 117 -57
227 l-51 200 -37 3 c-34 3 -38 0 -44 -25z m76 -142 l28 -111 -60 0 c-56 0 -60
2 -55 20 3 11 15 63 28 115 13 52 25 93 27 91 2 -3 16 -54 32 -115z"/>
<path d="M5879 1231 c-24 -19 -24 -20 -24 -236 0 -203 1 -218 19 -231 15 -10
52 -14 138 -14 l118 0 0 135 c0 74 -2 135 -4 135 -3 0 -34 -19 -70 -41 -52
-32 -66 -46 -66 -65 l0 -25 37 26 c21 14 41 25 45 25 5 0 8 -34 8 -75 l0 -75
-85 0 -85 0 0 205 0 205 85 0 85 0 0 -35 c0 -31 3 -35 25 -35 24 0 25 3 25 60
l0 60 -114 0 c-97 0 -117 -3 -137 -19z"/>
<path d="M6220 1225 c0 -18 5 -25 20 -25 19 0 20 -7 20 -205 0 -198 -1 -205
-20 -205 -13 0 -20 -7 -20 -20 0 -19 7 -20 155 -20 l155 0 0 60 c0 53 -2 60
-20 60 -17 0 -20 -7 -20 -40 l0 -40 -85 0 -85 0 0 95 0 95 45 0 c38 0 45 -3
45 -20 0 -15 7 -20 25 -20 24 0 25 2 25 65 0 63 -1 65 -25 65 -18 0 -25 -5
-25 -20 0 -17 -7 -20 -45 -20 l-45 0 0 85 0 85 85 0 85 0 0 -35 c0 -28 4 -35
20 -35 18 0 20 7 20 60 l0 60 -155 0 -155 0 0 -25z"/>
<path d="M3137 1022 l-27 -17 2 -205 3 -205 88 -3 c57 -2 94 1 103 9 11 9 14
44 14 155 l0 144 190 0 190 0 0 -143 c0 -98 4 -147 12 -155 16 -16 170 -16
186 0 9 9 12 68 12 204 l0 193 -30 21 -30 21 0 -195 0 -196 -45 0 -44 0 -3
153 -3 152 -245 0 -245 0 -5 -150 -5 -150 -42 -3 -43 -3 -2 195 -3 195 -28
-17z"/>
<path d="M3350 840 c0 -19 7 -20 160 -20 153 0 160 1 160 20 0 19 -7 20 -160
20 -153 0 -160 -1 -160 -20z"/>
<path d="M3350 760 c0 -19 7 -20 160 -20 153 0 160 1 160 20 0 19 -7 20 -160
20 -153 0 -160 -1 -160 -20z"/>
<path d="M3350 670 c0 -19 7 -20 160 -20 153 0 160 1 160 20 0 19 -7 20 -160
20 -153 0 -160 -1 -160 -20z"/>
<path d="M1427 463 c-4 -3 -7 -52 -7 -109 0 -114 0 -114 76 -114 l44 0 0 66 0
65 -30 -21 c-16 -12 -30 -26 -30 -33 0 -8 3 -8 12 1 20 20 28 14 28 -23 0 -34
-1 -35 -40 -35 l-40 0 0 95 0 95 40 0 c29 0 40 -4 40 -15 0 -8 5 -15 10 -15 6
0 10 11 10 25 0 24 -3 25 -53 25 -30 0 -57 -3 -60 -7z"/>
<path d="M4697 463 c-4 -3 -7 -21 -7 -40 0 -28 7 -37 50 -65 43 -28 50 -38 50
-65 0 -32 -2 -33 -40 -33 -33 0 -40 3 -40 20 0 11 -4 20 -10 20 -5 0 -10 -13
-10 -30 0 -29 2 -30 44 -30 68 0 76 6 76 55 0 41 -3 45 -50 75 -37 24 -50 38
-50 56 0 21 4 24 40 24 29 0 40 -4 40 -15 0 -8 5 -15 10 -15 6 0 10 11 10 25
0 24 -3 25 -53 25 -30 0 -57 -3 -60 -7z"/>
<path d="M4860 451 c-17 -32 -13 -177 6 -195 18 -19 85 -21 102 -4 8 8 12 46
12 103 0 57 -4 95 -12 103 -7 7 -31 12 -55 12 -32 0 -45 -5 -53 -19z m100 -96
l0 -95 -40 0 -40 0 0 95 0 95 40 0 40 0 0 -95z"/>
<path d="M5020 460 c0 -5 5 -10 10 -10 6 0 10 -38 10 -95 0 -57 -4 -95 -10
-95 -5 0 -10 -5 -10 -10 0 -7 24 -10 63 -8 59 3 62 4 65 31 2 15 -1 27 -7 27
-6 0 -11 -9 -11 -20 0 -16 -7 -20 -35 -20 l-35 0 0 95 c0 57 4 95 10 95 6 0
10 5 10 10 0 6 -13 10 -30 10 -16 0 -30 -4 -30 -10z"/>
<path d="M5180 460 c0 -5 5 -10 10 -10 6 0 10 -38 10 -95 0 -57 -4 -95 -10
-95 -5 0 -10 -4 -10 -10 0 -11 81 -13 118 -4 22 6 23 9 20 113 l-3 106 -67 3
c-43 2 -68 -1 -68 -8z m120 -105 l0 -95 -40 0 -40 0 0 95 0 95 40 0 40 0 0
-95z"/>
<path d="M1736 441 c-4 -5 -2 -12 3 -15 5 -4 12 -2 15 3 4 5 2 12 -3 15 -5 4
-12 2 -15 -3z"/>
<path d="M3320 435 c0 -8 5 -15 10 -15 6 0 10 7 10 15 0 8 -4 15 -10 15 -5 0
-10 -7 -10 -15z"/>
<path d="M3850 425 c0 -13 -8 -28 -17 -34 -17 -9 -17 -10 0 -16 13 -6 17 -19
17 -65 0 -44 4 -59 16 -64 23 -9 34 -7 34 4 0 6 -7 10 -15 10 -19 0 -22 105
-2 114 10 5 10 7 0 12 -7 3 -13 19 -13 35 0 16 -4 29 -10 29 -5 0 -10 -11 -10
-25z"/>
<path d="M4167 444 c-8 -8 1 -24 14 -24 5 0 9 7 9 15 0 15 -12 20 -23 9z"/>
<path d="M1876 382 c-22 -13 -30 -14 -33 -4 -3 6 -14 12 -26 11 -12 0 -16 -3
-9 -6 15 -6 17 -123 1 -123 -5 0 -7 -4 -4 -10 8 -13 55 -13 55 0 0 6 -4 10
-10 10 -5 0 -10 18 -10 39 0 34 5 42 35 60 l35 20 0 -59 c0 -36 -4 -60 -11
-60 -5 0 -7 -4 -4 -10 3 -5 17 -10 31 -10 13 0 24 5 24 10 0 6 -4 10 -10 10
-5 0 -10 30 -12 67 -2 36 -7 68 -13 69 -5 2 -23 -4 -39 -14z"/>
<path d="M2453 380 c-27 -16 -33 -17 -33 -5 0 9 -9 15 -22 14 -13 0 -17 -3
-10 -6 15 -6 17 -123 2 -123 -5 0 -10 -4 -10 -10 0 -5 11 -10 24 -10 22 0 23
3 18 46 -4 41 -2 49 19 65 13 10 28 19 33 19 4 0 6 -29 4 -65 -4 -63 -3 -65
20 -65 18 0 23 4 18 16 -3 9 -6 37 -6 63 0 26 -6 55 -12 64 -12 16 -15 16 -45
-3z"/>
<path d="M3461 382 c-18 -12 -25 -14 -29 -4 -2 6 -13 12 -25 12 -16 0 -18 -3
-9 -12 14 -14 16 -118 2 -118 -5 0 -10 -4 -10 -10 0 -5 11 -10 24 -10 22 0 23
3 18 49 -4 45 -2 49 28 71 l32 23 -4 -71 c-4 -69 -3 -72 19 -72 13 0 23 5 23
10 0 6 -4 10 -10 10 -5 0 -10 30 -12 67 -2 36 -7 68 -13 69 -5 2 -21 -5 -34
-14z"/>
<path d="M1576 374 c-12 -31 -6 -102 10 -118 20 -20 68 -20 88 0 16 16 22 87
10 118 -9 23 -99 23 -108 0z m84 -54 l0 -60 -30 0 -30 0 0 60 0 60 30 0 30 0
0 -60z"/>
<path d="M1725 315 c0 -71 1 -75 22 -75 12 0 25 5 28 10 3 6 1 10 -4 10 -7 0
-11 26 -11 65 0 55 -3 65 -17 65 -16 0 -18 -10 -18 -75z"/>
<path d="M1980 321 c0 -39 5 -73 10 -76 6 -4 22 0 35 9 36 24 45 20 45 -19 0
-32 -2 -35 -30 -35 -16 0 -30 5 -30 10 0 6 -4 10 -10 10 -5 0 -10 -9 -10 -21
0 -18 5 -20 48 -17 l47 3 3 95 c2 60 7 97 15 102 7 4 -18 8 -55 8 l-68 0 0
-69z m85 16 c0 -32 -5 -41 -32 -58 l-33 -21 0 62 0 61 33 -3 c30 -3 32 -5 32
-41z"/>
<path d="M2247 383 c-12 -11 -8 -118 5 -131 13 -13 56 -16 82 -6 12 5 16 21
16 75 l0 69 -48 0 c-27 0 -52 -3 -55 -7z m83 -63 l0 -60 -35 0 -35 0 0 53 c0
62 3 67 42 67 28 0 28 -1 28 -60z"/>
<path d="M2556 374 c-10 -27 -6 -110 6 -122 7 -7 29 -12 50 -12 33 0 38 3 37
23 0 12 -3 16 -6 10 -2 -7 -18 -13 -34 -13 -29 0 -29 0 -29 60 0 56 2 60 23
60 13 0 28 -5 35 -12 9 -9 12 -8 12 5 0 24 -85 25 -94 1z"/>
<path d="M2686 374 c-10 -27 -6 -110 6 -122 13 -13 56 -16 82 -6 17 7 22 34 6
34 -5 0 -10 -4 -10 -10 0 -5 -13 -10 -30 -10 -42 0 -38 22 10 54 29 19 40 33
40 51 0 23 -3 25 -49 25 -35 0 -51 -4 -55 -16z m84 -11 c0 -10 -14 -26 -30
-35 l-30 -17 0 34 c0 32 2 35 30 35 22 0 30 -5 30 -17z"/>
<path d="M3007 383 c-4 -3 -7 -35 -7 -70 0 -71 13 -86 52 -59 32 23 38 20 38
-19 0 -32 -2 -35 -30 -35 -16 0 -30 5 -30 11 0 5 -4 7 -10 4 -5 -3 -10 -13
-10 -21 0 -10 13 -14 50 -14 l50 0 0 99 c0 70 4 101 13 104 6 3 -15 6 -49 6
-33 1 -64 -2 -67 -6z m81 -43 c-2 -34 -9 -45 -35 -61 l-33 -21 0 54 c0 63 3
68 42 68 28 0 29 -2 26 -40z"/>
<path d="M3160 322 c0 -75 5 -82 60 -82 40 0 51 20 48 87 l-3 58 -52 3 -53 3
0 -69z m88 -4 l3 -58 -36 0 -35 0 0 61 0 60 33 -3 c32 -3 32 -4 35 -60z"/>
<path d="M3308 383 c15 -6 17 -123 2 -123 -5 0 -10 -4 -10 -10 0 -5 14 -10 30
-10 17 0 30 5 30 10 0 6 -4 10 -10 10 -6 0 -10 28 -10 65 0 61 -1 65 -22 64
-13 0 -17 -3 -10 -6z"/>
<path d="M3567 383 c-4 -3 -7 -35 -7 -70 0 -75 13 -86 60 -53 l30 21 0 -40 c0
-39 -2 -41 -30 -41 -16 0 -30 5 -30 11 0 5 -4 7 -10 4 -5 -3 -10 -13 -10 -21
0 -10 13 -14 50 -14 l50 0 0 99 c0 70 4 101 13 104 6 3 -15 6 -49 6 -33 1 -64
-2 -67 -6z m81 -45 c-3 -35 -8 -45 -35 -61 l-33 -19 0 54 c0 63 3 68 42 68 28
0 29 -2 26 -42z"/>
<path d="M3938 328 c20 -88 20 -88 36 -88 10 0 19 19 27 60 6 33 15 60 18 60
4 0 13 -27 19 -60 17 -79 36 -79 53 -2 7 31 16 65 21 75 7 13 5 17 -9 17 -14
0 -19 -9 -20 -38 -1 -21 -6 -49 -12 -63 -8 -21 -10 -17 -22 39 -10 47 -17 62
-30 62 -14 0 -21 -14 -30 -62 l-13 -63 -13 45 c-8 25 -12 53 -9 63 3 11 -2 17
-13 17 -16 0 -17 -4 -3 -62z"/>
<path d="M4158 378 c14 -14 16 -118 2 -118 -5 0 -10 -4 -10 -10 0 -5 14 -10
30 -10 17 0 30 5 30 10 0 6 -4 10 -10 10 -6 0 -10 28 -10 65 0 60 -2 65 -22
65 -17 0 -19 -3 -10 -12z"/>
<path d="M4240 321 c0 -76 4 -81 66 -81 27 0 34 4 34 20 0 11 -4 20 -10 20 -5
0 -10 -4 -10 -10 0 -5 -13 -10 -30 -10 l-30 0 0 60 0 60 30 0 c17 0 30 -4 30
-10 0 -5 5 -10 10 -10 6 0 10 7 10 15 0 11 -12 15 -50 15 l-50 0 0 -69z"/>
<path d="M4370 322 c0 -75 5 -82 59 -82 26 0 51 16 51 32 0 4 -7 8 -15 8 -8 0
-15 -4 -15 -10 0 -5 -13 -10 -30 -10 -44 0 -38 24 16 55 35 20 44 32 42 48 -3
19 -10 22 -55 25 l-53 3 0 -69z m80 40 c0 -10 -13 -26 -30 -35 l-30 -18 0 35
c0 33 2 36 30 36 22 0 30 -5 30 -18z"/>
<path d="M2837 263 c-2 -5 -7 -20 -11 -35 -9 -41 9 -34 21 7 10 30 2 50 -10
28z"/>
<path d="M4513 235 c-14 -44 1 -47 16 -4 13 38 13 39 3 39 -5 0 -13 -16 -19
-35z"/>
</g>
</svg>
